<?xml version="1.0" encoding="utf-8"?>
<!-- Generator: Adobe Illustrator 24.1.0, SVG Export Plug-In . SVG Version: 6.00 Build 0)  -->
<svg version="1.1" id="Layer_1" xmlns="http://www.w3.org/2000/svg" xmlns:xlink="http://www.w3.org/1999/xlink" x="0px" y="0px"
	 viewBox="0 0 104 104" style="enable-background:new 0 0 104 104;" xml:space="preserve">
<style type="text/css">
	.st0{fill:#0121D8;}
	.st1{fill-rule:evenodd;clip-rule:evenodd;fill:#0121D8;}
	.st2{fill:#26C6DA;}
	.st3{fill:#FFFFFF;}
</style>
<path class="st0" d="M104,52c0,28.7-23.3,52-52,52S0,80.7,0,52S23.3,0,52,0S104,23.3,104,52z"/>
<path class="st1" d="M52,98.4c25.6,0,46.4-20.8,46.4-46.4S77.6,5.6,52,5.6S5.6,26.4,5.6,52S26.4,98.4,52,98.4z M52,104
	c28.7,0,52-23.3,52-52S80.7,0,52,0S0,23.3,0,52S23.3,104,52,104z"/>
<path class="st2" d="M74.9,30.4c-0.1-0.6-0.7-1.2-1.3-1.3c-3.5-0.8-6.3-0.8-9-0.8c-11.3,0-18,6-23,14H30.2c-1.8,0-3.9,1.3-4.7,2.9
	l-5.4,10.8c-0.2,0.4-0.3,0.8-0.3,1.2c0,0.7,0.3,1.4,0.8,1.8c0.5,0.5,1.2,0.8,1.8,0.8h11.3l-2.4,2.4c-1.2,1.2-1.4,3.5,0,4.9l5.5,5.5
	c1.2,1.2,3.5,1.4,4.9,0l2.4-2.4v11.3c0,0.7,0.3,1.4,0.8,1.8c0.5,0.5,1.2,0.8,1.8,0.8c0.4,0,0.8-0.1,1.2-0.3l10.8-5.4
	c1.6-0.8,2.9-2.9,2.9-4.7V62.4c7.9-5,14-11.8,14-23C75.7,36.7,75.7,33.9,74.9,30.4z M61.7,46.6c-0.9,0-1.7-0.3-2.4-0.7
	c-0.7-0.5-1.3-1.2-1.6-2c-0.3-0.8-0.4-1.7-0.2-2.5c0.2-0.8,0.6-1.6,1.2-2.2c0.6-0.6,1.4-1,2.2-1.2c0.8-0.2,1.7-0.1,2.5,0.2
	c0.8,0.3,1.5,0.9,2,1.6c0.5,0.7,0.7,1.6,0.7,2.4c0,1.2-0.5,2.3-1.3,3.1C64,46.2,62.9,46.6,61.7,46.6z"/>
<path class="st3" d="M23.3,28.6l-0.9,1.9l-2.1,0.3c-0.4,0.1-0.5,0.5-0.3,0.8l1.5,1.5l-0.4,2.1c-0.1,0.4,0.3,0.7,0.7,0.5l1.9-1l1.9,1
	c0.3,0.2,0.7-0.1,0.7-0.5L25.8,33l1.5-1.5c0.3-0.3,0.1-0.7-0.3-0.8L25,30.5l-0.9-1.9C23.9,28.2,23.4,28.2,23.3,28.6z"/>
<path class="st3" d="M86,56.5L85,58.4L83,58.7c-0.4,0.1-0.5,0.5-0.3,0.8l1.5,1.5L83.9,63c-0.1,0.4,0.3,0.7,0.7,0.5l1.9-1l1.9,1
	c0.3,0.2,0.7-0.1,0.7-0.5l-0.4-2.1l1.5-1.5c0.3-0.3,0.1-0.7-0.3-0.8l-2.1-0.3l-0.9-1.9C86.6,56.1,86.1,56.1,86,56.5z"/>
<path class="st3" d="M74.2,70l-1.9,3.8l-4.2,0.6c-0.7,0.1-1,1-0.5,1.6l3,2.9l-0.7,4.2c-0.1,0.8,0.7,1.3,1.3,1l3.7-2l3.7,2
	c0.7,0.3,1.4-0.2,1.3-1l-0.7-4.2l3-2.9c0.5-0.5,0.2-1.5-0.5-1.6l-4.2-0.6L75.8,70C75.5,69.3,74.5,69.3,74.2,70z"/>
<path class="st3" d="M21.7,65.6l-1.3,2.6l-2.8,0.4c-0.5,0.1-0.7,0.7-0.3,1.1l2.1,2l-0.5,2.9c-0.1,0.5,0.5,0.9,0.9,0.7l2.5-1.3
	l2.5,1.3c0.5,0.2,1-0.1,0.9-0.7l-0.5-2.9l2.1-2c0.4-0.4,0.2-1-0.3-1.1l-2.8-0.4l-1.3-2.6C22.6,65.1,21.9,65.1,21.7,65.6z"/>
<path class="st3" d="M41.9,14.2L40,18l-4.2,0.6c-0.7,0.1-1,1-0.5,1.6l3,2.9l-0.7,4.2c-0.1,0.8,0.7,1.3,1.3,1l3.7-2l3.7,2
	c0.7,0.3,1.4-0.2,1.3-1L47,23.1l3-2.9c0.5-0.5,0.2-1.5-0.5-1.6L45.4,18l-1.9-3.8C43.2,13.5,42.2,13.5,41.9,14.2z"/>
<path class="st3" d="M34.7,80.7l-0.9,1.9l-2.1,0.3c-0.4,0.1-0.5,0.5-0.3,0.8l1.5,1.5l-0.4,2.1c-0.1,0.4,0.3,0.7,0.7,0.5l1.9-1l1.9,1
	c0.3,0.2,0.7-0.1,0.7-0.5l-0.4-2.1l1.5-1.5c0.3-0.3,0.1-0.7-0.3-0.8l-2.1-0.3l-0.9-1.9C35.3,80.4,34.8,80.4,34.7,80.7z"/>
<path class="st3" d="M70.8,17.5l-0.8,1.5l-1.7,0.2c-0.3,0-0.4,0.4-0.2,0.6l1.2,1.2l-0.3,1.7c-0.1,0.3,0.3,0.5,0.5,0.4l1.5-0.8
	l1.5,0.8c0.3,0.1,0.6-0.1,0.5-0.4l-0.3-1.7l1.2-1.2c0.2-0.2,0.1-0.6-0.2-0.6l-1.7-0.2l-0.8-1.5C71.4,17.3,71,17.3,70.8,17.5z"/>
<path class="st3" d="M54.1,88l-0.6,1.2l-1.3,0.2c-0.2,0-0.3,0.3-0.2,0.5l0.9,0.9l-0.2,1.3c0,0.2,0.2,0.4,0.4,0.3l1.2-0.6l1.2,0.6
	c0.2,0.1,0.5-0.1,0.4-0.3l-0.2-1.3l0.9-0.9c0.2-0.2,0.1-0.5-0.2-0.5l-1.3-0.2L54.7,88C54.5,87.7,54.2,87.7,54.1,88z"/>
<path class="st3" d="M14.4,47.5l-0.6,1.2l-1.3,0.2c-0.2,0-0.3,0.3-0.2,0.5l0.9,0.9l-0.2,1.3c0,0.2,0.2,0.4,0.4,0.3l1.2-0.6l1.2,0.6
	c0.2,0.1,0.5-0.1,0.4-0.3L16,50.3l0.9-0.9c0.2-0.2,0.1-0.5-0.2-0.5l-1.3-0.2l-0.6-1.2C14.8,47.3,14.5,47.3,14.4,47.5z"/>
<path class="st3" d="M84.7,38.1l-0.6,1.2l-1.3,0.2c-0.2,0-0.3,0.3-0.2,0.5l0.9,0.9l-0.2,1.3c0,0.2,0.2,0.4,0.4,0.3l1.2-0.6l1.2,0.6
	c0.2,0.1,0.5-0.1,0.4-0.3l-0.2-1.3l0.9-0.9c0.2-0.2,0.1-0.5-0.2-0.5l-1.3-0.2l-0.6-1.2C85.1,37.9,84.8,37.9,84.7,38.1z"/>
</svg>
